<svg xmlns="http://www.w3.org/2000/svg" viewBox="0 0 720 420" width="720" height="420">
  <rect width="720" height="420" rx="16" fill="#fff"/>
  <g transform="translate(24,24)">
    <rect width="672" height="54" rx="12" fill="#0f172a"/>
    <rect x="16" y="16" width="110" height="10" rx="5" fill="#cbd5e1"/>
    <rect x="16" y="32" width="180" height="8" rx="4" fill="#64748b"/>
    <rect x="520" y="14" width="120" height="26" rx="13" fill="#8b5cf6"/>
    <rect x="532" y="22" width="96" height="10" rx="5" fill="#fff"/>

    <rect y="72" width="320" height="140" rx="12" fill="#f9fafb" stroke="#eef2ff"/>
    <rect x="360" y="72" width="312" height="140" rx="12" fill="#fff" stroke="#eef2ff"/>
    <g transform="translate(18,88)">
      <rect width="120" height="12" rx="6" fill="#7c3aed"/>
      <rect y="22" width="230" height="10" rx="5" fill="#e2e8f0"/>
      <rect y="40" width="200" height="10" rx="5" fill="#e2e8f0"/>
      <rect y="68" width="88" height="24" rx="12" fill="#ede9fe"/>
      <rect x="100" y="68" width="88" height="24" rx="12" fill="#ecfeff"/>
    </g>
    <g transform="translate(378,90)">
      <rect width="88" height="12" rx="6" fill="#0f172a"/>
      <rect y="22" width="176" height="10" rx="5" fill="#cbd5e1"/>
      <rect y="40" width="202" height="10" rx="5" fill="#e2e8f0"/>
      <rect y="68" width="220" height="20" rx="10" fill="#f8fafc" stroke="#e2e8f0"/>
      <rect y="96" width="220" height="20" rx="10" fill="#f8fafc" stroke="#e2e8f0"/>
    </g>

    <g transform="translate(0,230)">
      <rect width="220" height="120" rx="10" fill="#fff" stroke="#eef2ff"/>
      <rect x="240" width="220" height="120" rx="10" fill="#fff" stroke="#eef2ff"/>
      <rect x="480" width="220" height="120" rx="10" fill="#fff" stroke="#eef2ff"/>
    </g>
    <g transform="translate(18,246)">
      <rect width="72" height="10" rx="5" fill="#0f172a"/>
      <rect y="22" width="138" height="8" rx="4" fill="#e2e8f0"/>
      <rect y="40" width="120" height="8" rx="4" fill="#e2e8f0"/>
      <rect y="66" width="92" height="18" rx="9" fill="#f1f5f9"/>
    </g>
      <g transform="translate(20,348)">
        <rect width="640" height="28" rx="10" fill="#f8fafc" stroke="#eef2ff"/>
        <rect x="14" y="8" width="90" height="10" rx="5" fill="#c4b5fd"/>
        <rect x="118" y="8" width="106" height="10" rx="5" fill="#e2e8f0"/>
        <rect x="244" y="8" width="74" height="10" rx="5" fill="#a7f3d0"/>
        <rect x="330" y="8" width="68" height="10" rx="5" fill="#e2e8f0"/>
        <rect x="412" y="8" width="96" height="10" rx="5" fill="#e2e8f0"/>
        <rect x="524" y="8" width="86" height="10" rx="5" fill="#f9a8d4"/>
      </g>
    <g transform="translate(258,246)">
      <rect width="64" height="10" rx="5" fill="#0f172a"/>
      <rect y="22" width="138" height="8" rx="4" fill="#e2e8f0"/>
      <rect y="40" width="112" height="8" rx="4" fill="#e2e8f0"/>
      <rect y="66" width="108" height="18" rx="9" fill="#ecfeff"/>
    </g>
    <g transform="translate(498,246)">
      <rect width="88" height="10" rx="5" fill="#0f172a"/>
      <rect y="22" width="140" height="8" rx="4" fill="#e2e8f0"/>
      <rect y="40" width="108" height="8" rx="4" fill="#e2e8f0"/>
      <rect y="66" width="84" height="18" rx="9" fill="#fdf2f8"/>
    </g>
  </g>
</svg>